<?xml version="1.0" encoding="UTF-8"?>
<svg id="Layer_1" xmlns="http://www.w3.org/2000/svg" version="1.1" viewBox="0 0 1536 1024">
  <!-- Generator: Adobe Illustrator 30.4.0, SVG Export Plug-In . SVG Version: 2.1.4 Build 226)  -->
  <defs>
    <style>
      .st0 {
        fill: transparent;
      }

      .st1 {
        fill: currentColor;
        font-family: Montserrat-Bold, Montserrat;
        font-size: 60px;
        font-weight: 700;
        letter-spacing: 1.41em;
      }
    </style>
  </defs>
<!--   <path class="st0" d="M0,1021V-3h1536V1021H0ZM446.72,833.44l-1.42-63.73-1.02-23.54-2.12-38.37-1.89-29.87-1.15-21.12-1.8-29.18-1.99-33.8-.94-24.41-1.01-13.76-1.14-43.59-.2-39.44.67-11.09,1.47-43.36,1.04-20.28,1.89-23.16c3.68-44.5,9.56-88.23,19.65-131.75,4.83-20.84,10.83-39.96,20.57-59.61l-152.87-.04c8.26,15.51,15.95,29.54,22.79,45.11,19.12,43.46,36.32,87.16,48.24,133.31,12.05,46.66,19.22,93.33,22.6,141.05l1.21,17.12,1.93,32.99.34,41.16c-3.32-2.27-4.22-4.25-5.51-7.17l-42.12-94.52-40.42-91.54-67.33-153.37-27.18-64.15-134.17.02c23.31,22.59,38.21,48.85,45.11,79.3,4.01,17.11,5.15,33.68,5.73,51.35l-.8,125.46-.61,15.13-1.69,46.53-1.19,26.98-1.91,36.96-1.23,24.94-1.93,31.66-1.85,29.15-1.15,19.17-3.74,51.9-1.22,16.98-1.95,23.85-2.24,24.51-4.94,46.39,144.97-.03c-14.83-26.36-25.94-52.6-36.48-80.29-13.06-34.3-23.81-68.35-32.87-103.89-6.79-25.76-12.38-50.6-17.03-77.03-8.29-47.17-14.16-93.67-17.26-141.23l-1.26-19.28-1.72-32.24-.73-12.02-1.24-66.65-.58-7.88c-.04-.48,1.6-1.37,1.93-1.02l1.39,1.43,48.94,110.66,54.12,118.8,91.33,198.31,52.25,112.41,31.73-.22h0ZM785.83,644.81l-1.78-29.15-2.03-33.62-1.13-18.15-1.84-29.14-1.93-29.68-1.18-19.11-1.62-27.46-1.45-26.79-1.79-28.85-2.08-34.62-1.12-22.14-1.85-33.14-2.01-36.64-1.12-24.95-1.28-28.98,10.91-3.6c18.43-6.09,36.4-10.86,55.91-12.99,9.92-1.08,19.68,5.57,19.69,16.35l.04,64.2.07,15.67-.42,46.29-.42,418.7-.83,44.13c-.17,8.81-4.74,15.66-10.87,22.48l129.72-.07c-7.44-6.89-10.38-14.5-11.12-23.35l-1.48-17.75c-1.95-23.37-1.46-46.35-.15-69.7l1.24-22.09c2.47-43.76,17.7-103.37,36.55-143.32,14.03-29.75,32.28-56.91,54.51-80.97l17.86-19.33,16.51-17.52c34.13-36.21,63.18-81.49,68.98-131.82,3.42-29.71-6.59-62.32-28.46-82.32-31.78-29.05-82.75-38.76-124.87-41.25l-48.67-.82-48.48.84-18.9,1.37c-57.77,4.17-127.79,23.06-178.53,50.99-20.19,11.11-37.81,23.94-55.08,38.96-17.58,15.28-32.32,31.99-46.44,50.56-32.39,42.57-57.1,99.72-71.36,151.52-12.59,45.74-20.1,91.87-23.28,139.18l-1.13,33.08.05,44.91,1.01,40.16-.02,50.62c0,12.04-.72,23.56-4.08,35.28-1.32,4.59-4.52,8.51-7.87,12.83l133.82-.02c-4.58-14.25-6.83-27.94-8.65-42.21l-1.72-13.53-1.43-14.58-1.76-18.04-1.4-17.95-2.01-34.51-2.21-43.78.28-111.05c1.24-34.74,4.52-68.22,10.16-103.15h135.86l-.26,18.8-2.11,40.85-2.54,26.95c-5.17,54.9-13.64,108.66-26.07,162.53-8.17,35.41-16.03,69.99-27.54,104.25l-15.24,45.35,118.19.1-1.32-14.45-1.34-19.97-1.07-18.37-1.88-28.97-1.18-20.16-1.83-30.95-1.96-34.79-1.17-21.15h0ZM1207.6,656.39l-1.85-58.42-.03-60.04,1.51-48.42.92-13.01,3.81-41.69,99.26.12-.1,337.11-1.1,17.2c-1.01,15.79,2.06,30.66-13.16,44.32l132.52.06c-8.9-5.51-13.21-26.21-13.22-35.94l-.08-571.66,2.4-15.77c1.45-9.54,5.36-18.08,11.87-25.22l.13-1.85-40.07.92c-55.02,3.9-103.97,24.63-143.16,63.66l-6.59,6.56c-49.67,49.47-87.03,137.29-105.67,204.91l-14.87,65.26c-8.75,45.65-13.68,90.83-15.48,137.13l-.67,51.72-.17,86.57-2.16,14.68c-1.08,7.31-4.69,13-9.79,18.97h134.29c-2.96-6.29-4.68-12.07-5.93-18.56-4.1-21.28-6.31-42.44-7.66-64.1l-1.76-28.37-1.1-21.33-2.1-44.83v.02Z"/>
 -->  <path fill="currentColor" d="M785.83,644.81l1.17,21.15,1.96,34.79,1.83,30.95,1.18,20.16,1.88,28.97,1.07,18.37,1.34,19.97,1.32,14.45-118.19-.1,15.24-45.35c11.51-34.27,19.37-68.84,27.54-104.25,12.43-53.87,20.9-107.63,26.07-162.53l2.54-26.95,2.11-40.85.26-18.79h-135.86c-5.64,34.92-8.92,68.41-10.16,103.14l-.28,111.05,2.21,43.78,2.01,34.51,1.4,17.95,1.76,18.04,1.43,14.58,1.72,13.53c1.82,14.27,4.06,27.96,8.65,42.21l-133.82.02c3.34-4.31,6.55-8.23,7.87-12.83,3.36-11.73,4.08-23.25,4.08-35.28l.02-50.62-1.01-40.16-.05-44.91,1.13-33.08c3.18-47.3,10.69-93.44,23.28-139.18,14.26-51.8,38.97-108.95,71.36-151.52,14.12-18.56,28.86-35.27,46.44-50.56,17.27-15.02,34.9-27.85,55.08-38.96,50.74-27.93,120.77-46.82,178.53-50.99l18.9-1.37,48.48-.84,48.67.82c42.12,2.49,93.09,12.2,124.87,41.25,21.87,19.99,31.88,52.61,28.46,82.32-5.8,50.33-34.85,95.61-68.98,131.82l-16.51,17.52-17.86,19.33c-22.23,24.06-40.48,51.22-54.51,80.97-18.85,39.95-34.08,99.56-36.55,143.32l-1.24,22.09c-1.32,23.35-1.8,46.34.15,69.7l1.48,17.75c.74,8.85,3.67,16.46,11.12,23.35l-129.72.07c6.13-6.81,10.7-13.66,10.87-22.48l.83-44.13.42-418.7.42-46.29-.07-15.67-.04-64.2c0-10.78-9.77-17.44-19.69-16.35-19.52,2.13-37.48,6.9-55.91,12.99l-10.91,3.6,1.28,28.98,1.12,24.95,2.01,36.64,1.85,33.14,1.12,22.14,2.08,34.62,1.79,28.85,1.45,26.79,1.62,27.46,1.18,19.11,1.93,29.68,1.84,29.14,1.13,18.15,2.03,33.62,1.78,29.15h0ZM1037.97,348.18l1.57-14.13.06-44.75-1.24-10.62c-1.51-12.97-4.82-25.25-9.67-37.26-13.53-33.49-36.2-49.38-73.89-46.53l-.07,411.16c0,2.7.62,4.95,1.33,6.86l8.7-25,11.28-31.73,22.92-61.87,15.44-45.6c11.11-32.81,19.66-65.54,23.56-100.51v-.02ZM637.43,356.66c-8.08,22.09-14.45,44.36-18.38,67.93l134.61-.13-.66-145.17-.97-53.73c-29.68,10.88-62.25,37.96-78.53,64.03l-18.1,28.98c-7.04,12.42-12.59,24.72-17.96,38.08h-.01Z"/>
  <path fill="currentColor" d="M1207.6,656.39l2.1,44.83,1.1,21.33,1.76,28.37c1.35,21.65,3.56,42.81,7.66,64.1,1.25,6.5,2.96,12.28,5.93,18.57h-134.29c5.1-5.98,8.72-11.67,9.79-18.98l2.16-14.68.17-86.57.67-51.72c1.81-46.3,6.74-91.47,15.48-137.13l14.87-65.26c18.64-67.62,56-155.45,105.67-204.91l6.59-6.56c39.2-39.04,88.14-59.77,143.16-63.66l40.07-.92-.13,1.85c-6.51,7.13-10.42,15.67-11.87,25.22l-2.4,15.77.08,571.66c0,9.73,4.31,30.43,13.22,35.94l-132.52-.06c15.22-13.65,12.15-28.52,13.16-44.32l1.1-17.2.1-337.11-99.26-.12-3.81,41.69-.92,13.01-1.51,48.42.03,60.04,1.85,58.42v-.02ZM1213.15,424.61l98.07-.04-.04-205.58-16.66,11.21c-23.4,20.92-38.54,48.02-51.28,76.74-15.06,37.66-25.25,76.51-30.09,117.67h0Z"/>
  <path fill="currentColor" d="M446.72,833.44l-31.73.22-52.25-112.41-91.33-198.31-54.12-118.8-48.94-110.66-1.39-1.43c-.34-.35-1.97.54-1.93,1.02l.58,7.88,1.24,66.65.73,12.02,1.72,32.24,1.26,19.28c3.1,47.56,8.97,94.06,17.26,141.23,4.64,26.43,10.24,51.27,17.03,77.03,9.05,35.54,19.81,69.59,32.87,103.89,10.54,27.69,21.65,53.93,36.48,80.29l-144.97.03,4.94-46.39,2.24-24.51,1.95-23.85,1.22-16.98,3.74-51.9,1.15-19.17,1.85-29.15,1.93-31.66,1.23-24.94,1.91-36.96,1.19-26.98,1.69-46.53.61-15.13.8-125.46c-.58-17.67-1.72-34.24-5.73-51.35-6.9-30.45-21.8-56.72-45.11-79.3l134.17-.02,27.18,64.15,67.33,153.37,40.42,91.54,42.12,94.52c1.3,2.91,2.19,4.89,5.51,7.17l-.34-41.16-1.93-32.99-1.21-17.12c-3.38-47.71-10.54-94.39-22.6-141.05-11.92-46.15-29.12-89.84-48.24-133.31-6.85-15.57-14.54-29.59-22.79-45.11l152.87.04c-9.74,19.65-15.74,38.77-20.57,59.61-10.09,43.53-15.97,87.26-19.65,131.75l-1.89,23.16-1.04,20.28-1.47,43.36-.67,11.09.2,39.44,1.14,43.59,1.01,13.76.94,24.41,1.99,33.8,1.8,29.18,1.15,21.12,1.89,29.87,2.12,38.37,1.02,23.54,1.42,63.73h0Z"/>
  <path class="st0" d="M1037.97,348.18c-3.9,34.98-12.45,67.71-23.56,100.51l-15.44,45.6-22.92,61.87-11.28,31.73-8.7,25c-.71-1.91-1.34-4.15-1.33-6.86l.07-411.16c37.7-2.85,60.37,13.04,73.89,46.53,4.85,12.02,8.16,24.3,9.67,37.26l1.24,10.62-.06,44.75-1.57,14.13v.02Z"/>
  <path class="st0" d="M637.43,356.66c5.37-13.36,10.93-25.66,17.96-38.08l18.1-28.98c16.29-26.07,48.85-53.15,78.53-64.03l.97,53.73.66,145.17-134.61.13c3.94-23.57,10.31-45.84,18.38-67.93h.01Z"/>
  <path class="st0" d="M1213.15,424.61c4.84-41.16,15.03-80.01,30.09-117.67,12.74-28.72,27.88-55.82,51.28-76.74l16.66-11.21.04,205.58-98.07.04h0Z"/>
  <text class="st1" transform="translate(127.51 903.36)"><tspan x="0" y="0">CHAPTER ONE</tspan></text>
</svg>