<?xml version="1.0" encoding="UTF-8"?>
<svg id="Layer_1" xmlns="http://www.w3.org/2000/svg" version="1.1" viewBox="0 0 1536 1024">
  <!-- Generator: Adobe Illustrator 30.4.0, SVG Export Plug-In . SVG Version: 2.1.4 Build 226)  -->
  <defs>
    <style>
      .st0 {
        fill: transparent;
      }
    </style>
  </defs>
  <path d="M785.83,647.81l1.17,21.15,1.96,34.79,1.83,30.95,1.18,20.16,1.88,28.97,1.07,18.37,1.34,19.97,1.32,14.45-118.19-.1,15.24-45.35c11.51-34.27,19.37-68.84,27.54-104.25,12.43-53.87,20.9-107.63,26.07-162.53l2.54-26.95,2.11-40.85.26-18.79h-135.86c-5.64,34.92-8.92,68.41-10.16,103.14l-.28,111.05,2.21,43.78,2.01,34.51,1.4,17.95,1.76,18.04,1.43,14.58,1.72,13.53c1.82,14.27,4.06,27.96,8.65,42.21l-133.82.02c3.34-4.31,6.55-8.23,7.87-12.83,3.36-11.73,4.08-23.25,4.08-35.28l.02-50.62-1.01-40.16-.05-44.91,1.13-33.08c3.18-47.3,10.69-93.44,23.28-139.18,14.26-51.8,38.97-108.95,71.36-151.52,14.12-18.56,28.86-35.27,46.44-50.56,17.27-15.02,34.9-27.85,55.08-38.96,50.74-27.93,120.77-46.82,178.53-50.99l18.9-1.37,48.48-.84,48.67.82c42.12,2.49,93.09,12.2,124.87,41.25,21.87,19.99,31.88,52.61,28.46,82.32-5.8,50.33-34.85,95.61-68.98,131.82l-16.51,17.52-17.86,19.33c-22.23,24.06-40.48,51.22-54.51,80.97-18.85,39.95-34.08,99.56-36.55,143.32l-1.24,22.09c-1.32,23.35-1.8,46.34.15,69.7l1.48,17.75c.74,8.85,3.67,16.46,11.12,23.35l-129.72.07c6.13-6.81,10.7-13.66,10.87-22.48l.83-44.13.42-418.7.42-46.29-.07-15.67-.04-64.2c0-10.78-9.77-17.44-19.69-16.35-19.52,2.13-37.48,6.9-55.91,12.99l-10.91,3.6,1.28,28.98,1.12,24.95,2.01,36.64,1.85,33.14,1.12,22.14,2.08,34.62,1.79,28.85,1.45,26.79,1.62,27.46,1.18,19.11,1.93,29.68,1.84,29.14,1.13,18.15,2.03,33.62,1.78,29.15ZM1037.97,351.18l1.57-14.13.06-44.75-1.24-10.62c-1.51-12.97-4.82-25.25-9.67-37.26-13.53-33.49-36.2-49.38-73.89-46.53l-.07,411.16c0,2.7.62,4.95,1.33,6.86l8.7-25,11.28-31.73,22.92-61.87,15.44-45.6c11.11-32.81,19.66-65.54,23.56-100.51ZM637.43,359.66c-8.08,22.09-14.45,44.36-18.38,67.93l134.61-.13-.66-145.17-.97-53.73c-29.68,10.88-62.25,37.96-78.53,64.03l-18.1,28.98c-7.04,12.42-12.59,24.72-17.96,38.08Z"/>
  <path d="M1207.6,659.39l2.1,44.83,1.1,21.33,1.76,28.37c1.35,21.65,3.56,42.81,7.66,64.1,1.25,6.5,2.96,12.28,5.93,18.57h-134.29c5.1-5.98,8.72-11.67,9.79-18.98l2.16-14.68.17-86.57.67-51.72c1.81-46.3,6.74-91.47,15.48-137.13l14.87-65.26c18.64-67.62,56-155.45,105.67-204.91l6.59-6.56c39.2-39.04,88.14-59.77,143.16-63.66l40.07-.92-.13,1.85c-6.51,7.13-10.42,15.67-11.87,25.22l-2.4,15.77.08,571.66c0,9.73,4.31,30.43,13.22,35.94l-132.52-.06c15.22-13.65,12.15-28.52,13.16-44.32l1.1-17.2.1-337.11-99.26-.12-3.81,41.69-.92,13.01-1.51,48.42.03,60.04,1.85,58.42ZM1213.15,427.61l98.07-.04-.04-205.58-16.66,11.21c-23.4,20.92-38.54,48.02-51.28,76.74-15.06,37.66-25.25,76.51-30.09,117.67Z"/>
  <path d="M446.72,836.44l-31.73.22-52.25-112.41-91.33-198.31-54.12-118.8-48.94-110.66-1.39-1.43c-.34-.35-1.97.54-1.93,1.02l.58,7.88,1.24,66.65.73,12.02,1.72,32.24,1.26,19.28c3.1,47.56,8.97,94.06,17.26,141.23,4.64,26.43,10.24,51.27,17.03,77.03,9.05,35.54,19.81,69.59,32.87,103.89,10.54,27.69,21.65,53.93,36.48,80.29l-144.97.03,4.94-46.39,2.24-24.51,1.95-23.85,1.22-16.98,3.74-51.9,1.15-19.17,1.85-29.15,1.93-31.66,1.23-24.94,1.91-36.96,1.19-26.98,1.69-46.53.61-15.13.8-125.46c-.58-17.67-1.72-34.24-5.73-51.35-6.9-30.45-21.8-56.72-45.11-79.3l134.17-.02,27.18,64.15,67.33,153.37,40.42,91.54,42.12,94.52c1.3,2.91,2.19,4.89,5.51,7.17l-.34-41.16-1.93-32.99-1.21-17.12c-3.38-47.71-10.54-94.39-22.6-141.05-11.92-46.15-29.12-89.84-48.24-133.31-6.85-15.57-14.54-29.59-22.79-45.11l152.87.04c-9.74,19.65-15.74,38.77-20.57,59.61-10.09,43.53-15.97,87.26-19.65,131.75l-1.89,23.16-1.04,20.28-1.47,43.36-.67,11.09.2,39.44,1.14,43.59,1.01,13.76.94,24.41,1.99,33.8,1.8,29.18,1.15,21.12,1.89,29.87,2.12,38.37,1.02,23.54,1.42,63.73Z"/>

</svg>