<svg xmlns="http://www.w3.org/2000/svg" viewBox="0 18.020000457763672 507.04998779296875 38.72999954223633" data-asc="1.125" width="507.04998779296875" height="38.72999954223633"><defs/><g fill="#8b1d1f"><g transform="translate(0, 0)"><path d="M29.93 56.75L22.85 18.75L33.88 18.75L38.95 46.20L55.93 18.75L57 18.75L33.60 56.75L29.93 56.75M10.65 56.75L3.60 18.75L16.20 18.75L21.05 46.20L29.40 32.40L30.48 32.40L15.83 56.75L10.65 56.75M0 19.73L0 18.75L49.18 18.75L49.18 19.73L0 19.73M32.85 35.40L43.10 18.75L44.18 18.75L33.93 35.40L32.85 35.40M51.08 19.73L51.08 18.75L61.08 18.75L61.08 19.73L51.08 19.73ZM59.30 56.25L67.83 18.75L78.55 18.75L70.08 56.25L59.30 56.25M53.80 56.25L53.80 55.27L75.80 55.27L75.80 56.25L53.80 56.25M62.05 19.73L62.05 18.75L84.05 18.75L84.05 19.73L62.05 19.73ZM107.80 56.75L90.70 18.75L103.45 18.75L112.65 38.30L117.10 18.75L118.13 18.75L109.48 56.75L107.80 56.75M77.28 56.25L77.28 55.27L88.65 55.27L88.65 56.25L77.28 56.25M82 56.25L90.25 19.73L85.28 19.73L85.28 18.75L91.43 18.75L83.05 56.25L82 56.25M111.10 19.73L111.10 18.75L123.38 18.75L123.38 19.73L111.10 19.73ZM119.93 56.25L128.63 18.75L139.38 18.75L130.68 56.25L119.93 56.25M115.68 56.25L115.68 55.27L133.93 55.27Q137.35 55.27 140.15 54.02Q142.95 52.77 145.10 50.48Q147.25 48.17 148.73 45L149.70 45L147.10 56.25L115.68 56.25M141.48 43.85Q141.10 42.17 140.38 40.69Q139.65 39.20 138.58 38.27Q137.50 37.35 136.08 37.35L133.03 37.35L133.03 36.38L136.08 36.38Q137.50 36.38 139.06 35.50Q140.63 34.63 142.09 33.20Q143.55 31.77 144.68 30.10L145.65 30.10L142.45 43.85L141.48 43.85M151.93 29Q151.80 26.32 150.70 24.23Q149.60 22.13 147.59 20.92Q145.58 19.73 142.65 19.73L124.13 19.73L124.13 18.75L155.30 18.75L152.90 29L151.93 29ZM199.53 56.75Q195.85 56.75 192.95 55.35Q190.05 53.95 188.58 51.70L176.20 32.77Q175.30 31.38 174.88 29.89Q174.45 28.40 174.45 27.10Q174.45 24.60 176.30 22.60Q178.15 20.60 181.13 19.42Q184.10 18.25 187.48 18.25Q189.48 18.25 191.48 18.73Q193.48 19.20 195.13 20.09Q196.78 20.98 197.76 22.20Q198.75 23.42 198.75 24.92Q198.75 26.82 197.80 28.07Q196.85 29.32 195.20 30.21Q193.55 31.10 191.40 31.88Q189.25 32.65 186.88 33.60L186.53 32.70Q187.35 32.13 187.80 31.06Q188.25 30 188.43 28.45Q188.60 26.90 188.60 24.85Q188.60 23.30 188.45 22.01Q188.30 20.73 187.95 19.94Q187.60 19.15 186.98 19.15Q186.13 19.15 185.61 20.06Q185.10 20.98 184.89 22.32Q184.68 23.67 184.68 25Q184.68 26.32 185.16 28.36Q185.65 30.40 187.13 32.77L198.83 51.52Q199.38 52.42 199.99 53.21Q200.60 54 201.33 54.49Q202.05 54.98 203 54.98Q204.08 54.98 205.04 54.33Q206 53.67 206.68 52.48L207.48 52.73Q206.78 54.38 204.91 55.56Q203.05 56.75 199.53 56.75M178.50 56.75Q174.93 56.75 171.85 55.90Q168.78 55.05 166.90 53.19Q165.03 51.33 165.03 48.25Q165.03 45.58 166.14 43.65Q167.25 41.73 169.18 40.29Q171.10 38.85 173.55 37.71Q176 36.58 178.70 35.50L179.05 36.33Q177.85 37.13 177.01 38.52Q176.18 39.92 175.72 41.73Q175.28 43.52 175.28 45.52Q175.28 47.10 175.89 48.70Q176.50 50.30 177.71 51.64Q178.93 52.98 180.74 53.79Q182.55 54.60 184.98 54.60Q187.95 54.60 190.94 53.74Q193.93 52.88 196.60 51.40Q199.28 49.92 201.35 48.05Q203.43 46.17 204.63 44.11Q205.83 42.05 205.83 40.08L206.78 40.08Q206.78 41.20 205.91 42.21Q205.05 43.23 203.69 43.86Q202.33 44.50 200.83 44.50Q198.95 44.50 197.63 43.70Q196.30 42.90 195.61 41.65Q194.93 40.40 194.93 39.02Q194.93 37.75 195.73 36.55Q196.53 35.35 197.81 34.58Q199.10 33.80 200.53 33.80Q202.35 33.80 203.78 34.67Q205.20 35.55 206.01 36.99Q206.83 38.42 206.83 40.08Q206.83 42.55 205.39 44.96Q203.95 47.38 201.33 49.50Q198.70 51.63 195.16 53.25Q191.63 54.88 187.39 55.81Q183.15 56.75 178.50 56.75ZM237.60 56.75Q233.03 56.75 229.59 55.14Q226.15 53.52 224.25 50.55Q222.35 47.58 222.35 43.50Q222.35 38.38 224.10 33.81Q225.85 29.25 228.98 25.75Q232.10 22.25 236.23 20.25Q240.35 18.25 245.10 18.25Q248.55 18.25 250.99 19.82Q253.43 21.40 254.88 24.17Q256.33 26.95 256.85 30.52L256.28 30.52Q255.58 27.45 254.51 25.36Q253.45 23.27 252.19 22.02Q250.93 20.77 249.61 20.23Q248.30 19.67 247.10 19.67Q244.80 19.67 242.89 21.09Q240.98 22.50 239.45 24.86Q237.93 27.22 236.78 30.17Q235.63 33.13 234.86 36.26Q234.10 39.40 233.73 42.31Q233.35 45.23 233.35 47.50Q233.35 49.80 233.68 51.59Q234.00 53.38 235.20 54.40Q236.40 55.42 239.00 55.42Q241.60 55.42 244.08 53.92Q246.55 52.42 248.93 49.95Q251.30 47.48 253.55 44.48L254.10 44.48Q252.10 47.55 249.64 50.36Q247.18 53.17 244.18 54.96Q241.18 56.75 237.60 56.75M250.93 56.25L246.40 52.90Q247.68 51.95 248.96 50.69Q250.25 49.42 251.55 47.75L253.55 44.48L254.53 44.48L251.78 56.25L250.93 56.25M256.28 30.52L255.78 27.22Q255.20 25.65 254.54 24.50Q253.88 23.35 252.95 22.32L259.08 18.75L259.93 18.75L257.28 30.52L256.28 30.52ZM272.98 56.75Q266.13 56.75 262.43 53.17Q258.73 49.60 258.73 43.50Q258.73 38.80 260.05 34.86Q261.38 30.92 263.66 27.85Q265.95 24.77 268.88 22.63Q271.80 20.48 275.04 19.36Q278.28 18.25 281.48 18.25Q285.80 18.25 289 19.86Q292.20 21.48 293.96 24.45Q295.73 27.42 295.73 31.50Q295.73 37.38 293.76 42.04Q291.80 46.70 288.53 49.99Q285.25 53.27 281.20 55.01Q277.15 56.75 272.98 56.75M272.98 55.83Q274.65 55.83 276.20 54.40Q277.75 52.98 279.13 50.54Q280.50 48.10 281.61 45Q282.73 41.90 283.54 38.50Q284.35 35.10 284.79 31.75Q285.23 28.40 285.23 25.50Q285.23 23.88 285.01 22.67Q284.80 21.48 284.35 20.70Q283.90 19.92 283.19 19.54Q282.48 19.15 281.48 19.15Q279.93 19.15 278.43 20.57Q276.93 22 275.55 24.44Q274.18 26.88 273.03 29.97Q271.88 33.08 271.03 36.49Q270.18 39.90 269.70 43.25Q269.23 46.60 269.23 49.50Q269.23 52.17 269.60 53.52Q269.98 54.88 270.80 55.35Q271.63 55.83 272.98 55.83ZM313.45 56.75Q308.88 56.75 305.44 55.14Q302.00 53.52 300.10 50.55Q298.20 47.58 298.20 43.50Q298.20 38.38 299.95 33.81Q301.70 29.25 304.83 25.75Q307.95 22.25 312.08 20.25Q316.20 18.25 320.95 18.25Q324.40 18.25 326.84 19.82Q329.28 21.40 330.73 24.17Q332.18 26.95 332.70 30.52L332.13 30.52Q331.43 27.45 330.36 25.36Q329.30 23.27 328.04 22.02Q326.78 20.77 325.46 20.23Q324.15 19.67 322.95 19.67Q320.65 19.67 318.74 21.09Q316.83 22.50 315.30 24.86Q313.78 27.22 312.63 30.17Q311.48 33.13 310.71 36.26Q309.95 39.40 309.58 42.31Q309.20 45.23 309.20 47.50Q309.20 49.80 309.53 51.59Q309.85 53.38 311.05 54.40Q312.25 55.42 314.85 55.42Q317.45 55.42 319.93 53.92Q322.40 52.42 324.78 49.95Q327.15 47.48 329.40 44.48L329.95 44.48Q327.95 47.55 325.49 50.36Q323.03 53.17 320.03 54.96Q317.03 56.75 313.45 56.75M326.78 56.25L322.25 52.90Q323.53 51.95 324.81 50.69Q326.10 49.42 327.40 47.75L329.40 44.48L330.38 44.48L327.63 56.25L326.78 56.25M332.13 30.52L331.63 27.22Q331.05 25.65 330.39 24.50Q329.73 23.35 328.80 22.32L334.93 18.75L335.78 18.75L333.13 30.52L332.13 30.52ZM339.80 45.40L371.73 18.85L373.18 18.85L341.35 45.40L339.80 45.40M329.83 56.25L329.83 55.27L348.83 55.27L348.83 56.25L329.83 56.25M351.18 56.25L351.18 55.27L371.48 55.27L371.48 56.25L351.18 56.25M334.08 56.25L342.58 18.75L353.33 18.75L344.83 56.25L334.08 56.25M355.60 56.25L349.23 37.67L358.35 30.32L367.58 56.25L355.60 56.25M338.08 19.73L338.08 18.75L358.08 18.75L358.08 19.73L338.08 19.73M365.43 19.73L365.43 18.75L377.43 18.75L377.43 19.73L365.43 19.73ZM384.48 56.25L393.18 18.75L403.93 18.75L395.23 56.25L384.48 56.25M379.48 56.25L379.48 55.27L401.23 55.27L401.23 56.25L379.48 56.25M377.93 31.50L380.75 18.75L416.35 18.75L413.50 31.50L412.50 31.50Q412.48 28.32 411.65 25.65Q410.83 22.98 409.21 21.35Q407.60 19.73 405.18 19.73L391.43 19.73Q389.60 19.73 387.84 20.67Q386.08 21.63 384.45 23.26Q382.83 24.90 381.41 27.01Q380.00 29.13 378.88 31.50L377.93 31.50ZM412.58 56.25L434.63 18.02L440.58 18.02L445.30 56.25L434.08 56.25L431.00 26.25L413.70 56.25L412.58 56.25M408.83 56.25L408.83 55.27L419.83 55.27L419.83 56.25L408.83 56.25M428.33 56.25L428.33 55.27L448.83 55.27L448.83 56.25L428.33 56.25M420.48 44.50L420.48 43.52L436.83 43.52L436.83 44.50L420.48 44.50ZM455.55 56.25L464.08 18.75L474.80 18.75L466.33 56.25L455.55 56.25M450.05 56.25L450.05 55.27L472.05 55.27L472.05 56.25L450.05 56.25M458.30 19.73L458.30 18.75L480.30 18.75L480.30 19.73L458.30 19.73ZM477.28 56.25L485.98 18.75L496.73 18.75L488.03 56.25L477.28 56.25M473.03 56.25L473.03 55.27L490.28 55.27Q494.20 55.27 497.20 54.02Q500.20 52.77 502.40 50.48Q504.60 48.17 506.08 45L507.05 45L504.45 56.25L473.03 56.25M481.48 19.73L481.48 18.75L501.20 18.75L501.20 19.73L481.48 19.73Z"/></g></g></svg>